<svg width="200" height="200" viewBox="0 0 200 200" fill="none" xmlns="http://www.w3.org/2000/svg">
<path d="M53.0417 18.75H43.3333C41.1232 18.75 39.0036 19.628 37.4408 21.1908C35.878 22.7536 35 24.8732 35 27.0833V172.917C35 175.127 35.878 177.246 37.4408 178.809C39.0036 180.372 41.1232 181.25 43.3333 181.25H53.0417M53.0417 18.75V181.25M53.0417 18.75H156.667C158.877 18.75 160.996 19.628 162.559 21.1908C164.122 22.7536 165 24.8732 165 27.0833V172.917C165 175.127 164.122 177.246 162.559 178.809C160.996 180.372 158.877 181.25 156.667 181.25H53.0417" stroke="black" stroke-width="4.16667" stroke-linecap="round" stroke-linejoin="round"/>
<path d="M117.479 120.833C132.043 120.833 143.85 109.027 143.85 94.4626C143.85 79.8984 132.043 68.0918 117.479 68.0918C102.915 68.0918 91.1084 79.8984 91.1084 94.4626C91.1084 109.027 102.915 120.833 117.479 120.833Z" stroke="black" stroke-width="4.16667" stroke-linecap="round" stroke-linejoin="round"/>
<path d="M98.8458 113.092L73.6292 138.308" stroke="black" stroke-width="4.16667" stroke-linecap="round" stroke-linejoin="round"/>
</svg>
